<svg width="57" height="69" viewBox="0 0 57 69" fill="none" xmlns="http://www.w3.org/2000/svg">
<path fill-rule="evenodd" clip-rule="evenodd" d="M28.5 0C26.6697 0 24.8573 0.360504 23.1664 1.06093C21.4754 1.76135 19.9389 2.78798 18.6447 4.0822C17.3505 5.37641 16.3239 6.91287 15.6234 8.60385C14.923 10.2948 14.5625 12.1072 14.5625 13.9375V17.0625C14.5625 17.9461 14.6469 19.0574 14.8044 20.1315C14.956 21.1658 15.207 22.3909 15.6234 23.3962C16.3239 25.0871 17.3505 26.6236 18.6447 27.9178C19.9389 29.212 21.4754 30.2386 23.1664 30.9391C24.8573 31.6395 26.6697 32 28.5 32C30.3303 32 32.1427 31.6395 33.8337 30.9391C35.5246 30.2386 37.0611 29.212 38.3553 27.9178C39.6495 26.6236 40.6762 25.0871 41.3766 23.3962C41.793 22.3909 42.044 21.1658 42.1956 20.1315C42.3531 19.0574 42.4375 17.9461 42.4375 17.0625V13.9375C42.4375 12.1072 42.077 10.2948 41.3766 8.60385C40.6762 6.91287 39.6495 5.37641 38.3553 4.0822C37.0611 2.78798 35.5246 1.76135 33.8337 1.06093C32.1427 0.360504 30.3303 0 28.5 0ZM25.4625 6.60421C26.4255 6.20531 27.4576 6 28.5 6C29.5424 6 30.5745 6.20531 31.5376 6.60421C32.5006 7.0031 33.3756 7.58778 34.1127 8.32484C34.8497 9.06191 35.4344 9.93693 35.8333 10.9C36.2322 11.863 36.4375 12.8951 36.4375 13.9375V17.0625C36.4375 17.6152 36.3805 18.4332 36.2591 19.2611C36.1319 20.1288 35.9666 20.7783 35.8333 21.1C35.4344 22.0631 34.8497 22.9381 34.1127 23.6752C33.3756 24.4122 32.5006 24.9969 31.5376 25.3958C30.5745 25.7947 29.5424 26 28.5 26C27.4576 26 26.4255 25.7947 25.4625 25.3958C24.4994 24.9969 23.6244 24.4122 22.8873 23.6752C22.1503 22.9381 21.5656 22.0631 21.1667 21.1C21.0334 20.7783 20.8682 20.1288 20.7409 19.2611C20.6196 18.4332 20.5625 17.6152 20.5625 17.0625V13.9375C20.5625 12.8951 20.7678 11.863 21.1667 10.9C21.5656 9.93693 22.1503 9.06191 22.8873 8.32484C23.6244 7.58778 24.4994 7.0031 25.4625 6.60421ZM17.8712 34.3907C17.7697 34.3803 17.6667 34.375 17.5625 34.375C17.4278 34.375 17.2952 34.3839 17.1652 34.4011C15.0437 34.4382 13.1782 34.528 11.5634 34.7451C8.67782 35.1332 6.14692 35.9769 4.12435 38.0018C2.10123 40.0239 1.25805 42.554 0.870133 45.4384C0.499816 48.192 0.499901 51.6746 0.500003 55.9121L0.500007 56.125V65.5C0.500007 67.1569 1.84315 68.5 3.50001 68.5C5.15686 68.5 6.50001 67.1569 6.50001 65.5V56.125C6.50001 51.6214 6.50638 48.5448 6.8166 46.2381C7.11524 44.0175 7.64499 42.9656 8.36699 42.2444L8.36941 42.242C9.09059 41.52 10.1425 40.9902 12.3631 40.6916C13.0272 40.6023 13.7551 40.5382 14.5625 40.4921V47.375C13.2417 47.8279 12.0278 48.5782 11.0218 49.5843C9.28706 51.319 8.31251 53.6717 8.31251 56.125V59.25C8.31251 60.9069 9.65565 62.25 11.3125 62.25C12.9694 62.25 14.3125 60.9069 14.3125 59.25V56.125C14.3125 55.263 14.6549 54.4364 15.2644 53.8269C15.8739 53.2174 16.7006 52.875 17.5625 52.875C18.4245 52.875 19.2511 53.2174 19.8606 53.8269C20.4701 54.4364 20.8125 55.2631 20.8125 56.125V59.25C20.8125 60.9069 22.1557 62.25 23.8125 62.25C25.4694 62.25 26.8125 60.9069 26.8125 59.25V56.125C26.8125 53.6717 25.838 51.319 24.1032 49.5843C23.0972 48.5782 21.8833 47.8279 20.5625 47.375V40.376C20.7092 40.3757 20.8577 40.3756 21.0078 40.3754L26.3787 45.7463C27.5503 46.9179 29.4498 46.9179 30.6213 45.7463L35.9922 40.3754C36.6983 40.3761 37.3666 40.3777 38 40.3816V52.484C37.7227 52.6722 37.4618 52.8873 37.2214 53.1276C36.2193 54.1298 35.6563 55.489 35.6563 56.9062C35.6563 58.3235 36.2193 59.6827 37.2214 60.6849C38.2236 61.687 39.5828 62.25 41 62.25C42.4172 62.25 43.7765 61.687 44.7786 60.6849C45.7808 59.6827 46.3438 58.3235 46.3438 56.9062C46.3438 55.489 45.7808 54.1298 44.7786 53.1276C44.5382 52.8873 44.2773 52.6722 44 52.484V40.6155C44.2187 40.6386 44.4309 40.6639 44.6369 40.6916C46.8575 40.9902 47.9094 41.52 48.6306 42.242L48.633 42.2444C49.355 42.9656 49.8848 44.0175 50.1834 46.2381C50.4936 48.5448 50.5 51.6214 50.5 56.125V65.5C50.5 67.1569 51.8432 68.5 53.5 68.5C55.1569 68.5 56.5 67.1569 56.5 65.5V56.125V55.9121V55.912C56.5001 51.6745 56.5002 48.192 56.1299 45.4384C55.7419 42.5534 54.8985 40.0229 52.8745 38.0006C50.8521 35.9766 48.3216 35.1331 45.4366 34.7451C44.3054 34.593 43.0512 34.5034 41.6722 34.4506C41.4561 34.4011 41.2311 34.375 41 34.375C40.8329 34.375 40.669 34.3887 40.5093 34.4149C38.8301 34.3749 36.9822 34.3749 34.9629 34.375L34.75 34.375C33.9544 34.375 33.1913 34.6911 32.6287 35.2537L28.5 39.3824L24.3713 35.2537C23.8087 34.6911 23.0457 34.375 22.25 34.375L22.0371 34.375C20.5567 34.375 19.1684 34.3749 17.8712 34.3907ZM4.12435 38.0018C4.12516 38.001 4.12596 38.0002 4.12677 37.9993L6.24688 40.1219L4.12435 38.0018Z" fill="#546FFF"/>
</svg>
