<svg width="53" height="65" viewBox="0 0 53 65" fill="none" xmlns="http://www.w3.org/2000/svg">
<path d="M26.5002 26C33.6827 26 39.5002 20.1825 39.5002 13C39.5002 5.8175 33.6827 0 26.5002 0C19.3177 0 13.5002 5.8175 13.5002 13C13.5002 20.1825 19.3177 26 26.5002 26ZM26.5002 6.5C30.0752 6.5 33.0002 9.425 33.0002 13C33.0002 16.575 30.0752 19.5 26.5002 19.5C22.9252 19.5 20.0002 16.575 20.0002 13C20.0002 9.425 22.9252 6.5 26.5002 6.5ZM47.2677 34.32C41.8077 31.525 34.7227 29.25 26.5002 29.25C18.2777 29.25 11.1927 31.525 5.73271 34.32C4.1469 35.1368 2.81844 36.377 1.89478 37.9031C0.97113 39.4291 0.488413 41.1812 0.500211 42.965V65H7.00021V42.965C7.00021 41.73 7.65021 40.625 8.62521 40.105C12.5577 38.1225 18.7977 35.75 26.5002 35.75C28.9702 35.75 31.2777 35.9775 33.4227 36.4L28.3852 47.125H19.1877C14.2477 47.125 10.2502 51.1225 10.2502 56.0625C10.2502 61.0025 14.2477 65 19.1877 65H46.0002C49.5752 65 52.5002 62.075 52.5002 58.5V42.965C52.5002 39.325 50.5177 35.9775 47.2677 34.32ZM23.0552 58.5H19.1877C17.8552 58.5 16.7502 57.395 16.7502 56.0625C16.7502 54.73 17.8552 53.625 19.1877 53.625H25.3302L23.0552 58.5ZM46.0002 58.5H30.2377L39.7927 38.1225C41.5477 38.7725 43.0752 39.455 44.3752 40.105C45.3502 40.625 46.0002 41.73 46.0002 42.965V58.5Z" fill="#546FFF"/>
</svg>
